<svg width="141" height="23" viewBox="0 0 141 23" fill="none" xmlns="http://www.w3.org/2000/svg">
<g clip-path="url(#clip0_7046_75888)">
<path d="M119.11 4.6406H115.013V8.61412H119.11C120.575 8.61412 121.771 7.74401 121.771 6.64187C121.771 5.53972 120.545 4.6406 119.11 4.6406ZM97.5188 15.459C97.5188 17.0542 95.7843 18.3594 93.6312 18.3594H89.7735V12.5586H93.6312C95.7843 12.5586 97.5188 13.8638 97.5188 15.459ZM96.5618 6.64187C96.5618 7.74401 95.3357 8.61412 93.9003 8.61412H89.8034V4.6406H93.9003C95.3357 4.6406 96.5618 5.53972 96.5618 6.64187ZM104.187 6.64187C104.187 3.13241 101.406 0.696091 94.7975 0.696091H82.2974V22.3329H94.2891C101.586 22.3329 105.115 19.2585 105.115 15.488C105.115 13.5738 103.739 11.3115 101.287 10.4124C103.171 9.68726 104.187 8.15006 104.187 6.64187ZM35.4668 4.00252C32.895 4.00252 30.8316 6.29382 30.8316 11.5145C30.8316 16.7352 32.895 18.9975 35.4668 18.9975C38.0087 18.9975 40.102 16.7352 40.102 11.5145C40.0721 6.29382 38.0087 4.00252 35.4668 4.00252ZM35.4668 22.884C28.6486 22.884 23.1162 18.8525 23.1162 11.5145C23.1162 4.17654 28.6486 0.116015 35.4668 0.116015C42.285 0.116015 47.8174 4.20555 47.8174 11.5145C47.8174 18.8525 42.2551 22.884 35.4668 22.884ZM122.938 22.3329L114.983 12.1236V22.3329H107.537V0.696091H120.037C126.646 0.696091 129.636 3.36444 129.636 6.64187C129.636 9.89029 127.543 11.6305 123.296 12.2686L131.072 22.3329H122.938ZM133.524 0.696091H140.97V22.3329H133.524V0.696091ZM71.2925 22.3329H78.7387V0.696091H71.2925V22.3329ZM50.2696 0.696091H57.7158V18.3884H68.4515V22.3329H50.2696V0.696091V0.696091ZM10.7656 23C5.95101 23 2.33256 20.8827 0 18.5334L2.21294 15.8651C4.21654 17.4893 6.75843 18.7074 9.8087 18.7074C11.6927 18.7074 12.7393 17.8373 12.7393 16.8802C12.7393 15.7491 11.1245 15.024 7.50604 13.6608C2.90074 11.9786 0.717709 9.57125 0.717709 6.75788C0.717709 3.21942 4.21654 0 9.8087 0C14.0551 0 17.9128 1.85624 20.066 3.50946L18.1222 6.38083C16.0288 5.13367 13.8757 4.29256 10.9152 4.29256C9.56946 4.29256 8.67232 4.87264 8.67232 5.71375C8.67232 6.43884 9.71898 7.39596 12.8889 8.52711C19.3183 10.7604 21.1724 13.6898 20.993 16.3291C20.8136 19.5776 17.3147 23 10.7656 23Z" fill="#222E46"/>
</g>
<defs>
<clipPath id="clip0_7046_75888">
<rect width="141" height="23" fill="white"/>
</clipPath>
</defs>
</svg>
